<?xml version="1.0" encoding="UTF-8"?>
<svg width="184.3" height="125.5" version="1.1" viewBox="-7.929 -7.929 72.72 49.53" xmlns="http://www.w3.org/2000/svg" xmlns:cc="http://creativecommons.org/ns#" xmlns:dc="http://purl.org/dc/elements/1.1/" xmlns:rdf="http://www.w3.org/1999/02/22-rdf-syntax-ns#">
 <path d="m21.72 24.79c-1.143 6.217-2.65 10.74-4.521 13.55-1.458 2.172-3.055 3.258-4.794 3.258-0.4636 0-1.035-0.14-1.714-0.4182v-1.499c0.3314 0.04865 0.7203 0.07461 1.167 0.07461 0.8113 0 1.465-0.2248 1.963-0.6735 0.5957-0.5468 0.8938-1.161 0.8938-1.842 0-0.4652-0.2325-1.42-0.6955-2.864l-3.08-9.589h2.757l2.21 7.172c0.4966 1.628 0.7037 2.765 0.6208 3.413 1.209-3.238 2.054-6.766 2.534-10.58h2.658m-12.17 12.4h-2.806c-0.09869-4.749-0.3723-9.215-0.8194-13.4h-0.02472l-4.273 13.4h-2.137l-4.247-13.4h-0.02502c-0.3151 4.018-0.5134 8.483-0.596 13.4h-2.559c0.1653-5.978 0.5792-11.58 1.241-16.81h3.478l4.049 12.35h0.02484l4.074-12.35h3.328c0.7287 6.126 1.159 11.73 1.291 16.81" style="fill:#00758f;stroke-width:.1874"/>
 <path d="m59.08 37.19h-7.973v-16.81h2.683v14.74h5.29v2.068m-20.05-3.363c-0.6791-1.096-1.019-2.854-1.019-5.279 0-4.233 1.284-6.351 3.85-6.351 1.342 0 2.327 0.5066 2.956 1.519 0.6783 1.096 1.018 2.84 1.018 5.231 0 4.267-1.284 6.402-3.85 6.402-1.341 0-2.327-0.506-2.955-1.52m9.985 3.768-3.082-1.524c0.2744-0.2256 0.535-0.4691 0.7709-0.7509 1.309-1.542 1.963-3.825 1.963-6.848 0-5.562-2.178-8.344-6.533-8.344-2.136 0-3.801 0.7053-4.993 2.118-1.309 1.544-1.963 3.819-1.963 6.824 0 2.955 0.5792 5.123 1.738 6.5 1.056 1.245 2.653 1.868 4.792 1.868 0.7977 0 1.53-0.09848 2.195-0.2955l4.013 2.342 1.094-1.89m-15-5.065c0 1.426-0.5224 2.596-1.564 3.512-1.042 0.9118-2.443 1.369-4.196 1.369-1.64 0-3.229-0.5261-4.769-1.57l0.7203-1.444c1.325 0.6641 2.524 0.9957 3.6 0.9957 1.01 0 1.8-0.2253 2.372-0.6705 0.5705-0.4484 0.9124-1.074 0.9124-1.867 0-0.9982-0.6943-1.851-1.968-2.567-1.176-0.6471-3.526-1.998-3.526-1.998-1.273-0.9314-1.912-1.931-1.912-3.577 0-1.362 0.4761-2.463 1.427-3.3 0.9531-0.8392 2.183-1.259 3.689-1.259 1.557 0 2.972 0.4165 4.247 1.247l-0.6475 1.443c-1.091-0.4637-2.166-0.6964-3.227-0.6964-0.8605 0-1.524 0.2072-1.986 0.6239-0.4649 0.4131-0.7523 0.9448-0.7523 1.593 0 0.9956 0.7094 1.859 2.019 2.589 1.191 0.6474 3.599 2.025 3.599 2.025 1.31 0.9297 1.963 1.921 1.963 3.554" style="fill:#f29111;stroke-width:.1874"/>
 <path d="m60.99 37.19h0.4445v-1.71h0.5818v-0.3494h-1.631v0.3494h0.6043zm3.383 0h0.419v-2.06h-0.6302l-0.5129 1.404-0.5584-1.404h-0.6073v2.06h0.3965v-1.568h0.02253l0.5848 1.568h0.3021l0.5839-1.568v1.568" style="fill:#f29111;stroke-width:.1874"/>
 <path d="m36.78-7.929c-0.7089-0.01057-1.327 0.2572-1.646 1.042-0.5471 1.321 0.8104 2.62 1.277 3.291 0.3441 0.4666 0.7901 0.9956 1.032 1.523 0.142 0.3455 0.183 0.7118 0.3254 1.077 0.3238 0.8936 0.627 1.889 1.053 2.723 0.2221 0.4266 0.4649 0.8738 0.7485 1.258 0.1636 0.2248 0.4462 0.325 0.5073 0.6917-0.2827 0.4058-0.3048 1.015-0.4666 1.524-0.7289 2.295-0.4459 5.139 0.5878 6.825 0.3233 0.5077 1.094 1.625 2.128 1.198 0.9116-0.365 0.7089-1.523 0.9721-2.538 0.06059-0.2455 0.02007-0.4065 0.1413-0.5688v0.04099c0.2835 0.5679 0.568 1.115 0.8312 1.686 0.6289 0.9943 1.722 2.03 2.634 2.72 0.4848 0.367 0.8702 0.9957 1.478 1.22v-0.06149h-0.0399c-0.1221-0.1823-0.304-0.264-0.4663-0.4055-0.3645-0.3659-0.7685-0.8131-1.053-1.219-0.8505-1.137-1.601-2.397-2.268-3.697-0.3251-0.6312-0.6082-1.321-0.8718-1.95-0.1212-0.2426-0.1213-0.6093-0.3243-0.7309-0.3047 0.4464-0.7492 0.8327-0.9717 1.379-0.3852 0.8745-0.4255 1.951-0.5684 3.068-0.08051 0.02122-0.03983 1.88e-4 -0.08052 0.04062-0.6475-0.1624-0.8704-0.8327-1.114-1.4-0.6077-1.444-0.7099-3.76-0.1823-5.425 0.1411-0.4258 0.7507-1.766 0.5065-2.173-0.1225-0.3876-0.5274-0.609-0.7499-0.915-0.2627-0.3858-0.5478-0.8725-0.7283-1.3-0.4865-1.137-0.731-2.397-1.256-3.534-0.2433-0.529-0.6698-1.077-1.013-1.564-0.3857-0.5486-0.8105-0.9344-1.115-1.584-0.1004-0.2239-0.2423-0.59-0.08089-0.833 0.03982-0.1628 0.1221-0.2238 0.2844-0.2646 0.2619-0.2235 1.012 0.06031 1.275 0.1823 0.7501 0.3038 1.378 0.5895 2.005 1.015 0.2839 0.2035 0.5879 0.5897 0.952 0.6921h0.4264c0.648 0.1411 1.378 0.03931 1.986 0.2229 1.073 0.345 2.045 0.8528 2.917 1.401 2.653 1.686 4.841 4.084 6.319 6.947 0.2437 0.4666 0.3459 0.8933 0.5684 1.38 0.4255 0.9973 0.953 2.013 1.378 2.987 0.4251 0.9548 0.8309 1.929 1.439 2.722 0.303 0.4258 1.519 0.6493 2.066 0.8729 0.4043 0.1822 1.033 0.3449 1.398 0.568 0.6887 0.4258 1.376 0.9141 2.025 1.382 0.3233 0.2438 1.336 0.7511 1.397 1.158l3.72e-4 3.75e-4c-1.621-0.04066-2.877 0.1215-3.93 0.5688-0.3039 0.1217-0.7896 0.1216-0.8312 0.5076 0.1632 0.1622 0.1829 0.4263 0.3257 0.6507 0.2424 0.4062 0.6669 0.9538 1.053 1.239 0.4255 0.3252 0.8508 0.649 1.297 0.9333 0.7895 0.4896 1.681 0.7728 2.45 1.26 0.4471 0.284 0.8913 0.6494 1.338 0.9549 0.2221 0.1624 0.3626 0.4269 0.6474 0.5274v-0.06185c-0.1428-0.1823-0.1824-0.4461-0.3235-0.6504-0.2021-0.2016-0.4053-0.3855-0.6083-0.5878-0.5878-0.7921-1.318-1.482-2.106-2.051-0.6488-0.4481-2.068-1.058-2.33-1.807 0 0-0.02144-0.02135-0.04135-0.04135 0.4458-0.04123 0.9738-0.204 1.399-0.3272 0.6878-0.1823 1.316-0.1413 2.025-0.3235 0.3246-0.08185 0.6488-0.1838 0.9743-0.2836v-0.1841c-0.3666-0.3648-0.6286-0.8533-1.013-1.198-1.032-0.8934-2.168-1.766-3.343-2.499-0.6289-0.4064-1.439-0.6691-2.108-1.015-0.242-0.1221-0.6467-0.1822-0.7891-0.3865-0.3649-0.4467-0.5684-1.035-0.8312-1.564-0.5869-1.116-1.155-2.355-1.661-3.535-0.3645-0.7916-0.5874-1.583-1.033-2.315-2.088-3.454-4.356-5.545-7.84-7.597-0.7497-0.4271-1.641-0.6095-2.592-0.833-0.5073-0.02127-1.013-0.06092-1.52-0.08088-0.3246-0.1428-0.6495-0.5292-0.9326-0.7119-0.722-0.4568-2.156-1.247-3.337-1.265zm4.998 5.021c-0.3437 0-0.5862 0.04178-0.8308 0.1021v0.04063h0.03953c0.1636 0.3242 0.4477 0.5495 0.6485 0.8334 0.1632 0.3251 0.3051 0.6488 0.467 0.9743 0.0199-0.01996 0.03917-0.04099 0.03917-0.04099 0.2857-0.2022 0.4275-0.527 0.4275-1.015-0.1225-0.1432-0.1416-0.2843-0.2438-0.4271-0.1212-0.2027-0.3848-0.3043-0.5472-0.467z" style="fill:#00758f;stroke-width:.1874"/>
</svg>
